# Blender 4.4.1
# www.blender.org
mtllib bb.mtl
o Cube
v 1.000000 1.000000 -1.000000
v 1.000000 -1.000000 -1.000000
v 1.000000 1.000000 1.000000
v 1.000000 -1.000000 1.000000
v -1.000000 1.000000 -1.000000
v -1.000000 -1.000000 -1.000000
v -1.000000 1.000000 1.000000
v -1.000000 -1.000000 1.000000
v 1.707583 3.263204 -3.391626
v -0.292417 3.263204 -3.391626
v 1.707583 3.263204 -5.391626
v -0.292417 3.263204 -5.391626
v -2.535594 4.923858 4.168249
v -4.535594 4.923858 4.168249
v -2.535594 4.923858 2.168249
v -4.535594 4.923858 2.168249
v -0.311360 6.223107 -2.469310
v -2.311360 6.223107 -2.469310
v -0.311360 6.223107 -4.469310
v -2.311360 6.223107 -4.469310
v -0.649757 -2.991625 9.656256
v -2.649757 -2.991625 9.656256
v -0.649757 -2.991625 7.656256
v -2.649757 -2.991625 7.656256
v 4.643281 -0.979087 -4.808722
v 2.643281 -0.979087 -4.808722
v 4.643281 -0.979087 -6.808721
v 2.643281 -0.979087 -6.808721
v -3.978613 2.989821 9.819575
v -5.978613 2.989821 9.819575
v -3.978613 2.989821 7.819576
v -5.978613 2.989821 7.819576
v -4.021817 7.612456 4.218870
v -6.021817 7.612456 4.218870
v -4.021817 7.612456 2.218870
v -6.021817 7.612456 2.218870
v 4.263535 -2.033386 -2.649258
v 2.263535 -2.033386 -2.649258
v 4.263535 -2.033386 -4.649258
v 2.263535 -2.033386 -4.649258
v -5.252713 6.450210 8.438509
v -7.252713 6.450210 8.438509
v -5.252713 6.450210 6.438509
v -7.252713 6.450210 6.438509
v 1.286592 -5.542892 8.417198
v -0.713408 -5.542892 8.417198
v 1.286592 -5.542892 6.417198
v -0.713408 -5.542892 6.417198
v 3.761247 -5.233555 2.432968
v 1.761247 -5.233555 2.432968
v 3.761247 -5.233555 0.432968
v 1.761247 -5.233555 0.432968
v -2.642529 6.924150 1.944511
v -4.642529 6.924150 1.944511
v -2.642529 6.924150 -0.055489
v -4.642529 6.924150 -0.055489
vn -0.0000 0.8889 0.4581
vn -0.0000 -0.0000 1.0000
vn -1.0000 -0.0000 -0.0000
vn -0.0000 -1.0000 -0.0000
vn 1.0000 -0.0000 -0.0000
vn -0.0000 -0.0000 -1.0000
vn -0.0000 0.9767 -0.2146
vn -0.9544 0.2984 -0.0000
vn 0.9544 -0.2984 -0.0000
vn -0.0000 -0.8889 -0.4581
vn -0.5044 0.8635 -0.0000
vn 0.3645 0.9312 -0.0000
vn -0.3645 -0.9312 -0.0000
vn -0.0000 -0.9767 0.2146
vn -0.0000 -0.7962 -0.6051
vn -0.0000 0.9814 0.1921
vn -0.0000 -0.9814 -0.1921
vn 0.5044 -0.8635 -0.0000
vn -0.0000 -0.9905 -0.1378
vn -0.0000 0.7962 0.6051
vn -0.9993 0.0367 -0.0000
vn 0.9993 -0.0367 -0.0000
vn -0.4182 -0.9084 -0.0000
vn 0.3554 -0.9347 -0.0000
vn -0.3554 0.9347 -0.0000
vn -0.0000 0.9905 0.1378
vn -0.0000 -0.7712 -0.6366
vn -0.0000 -0.9651 0.2619
vn -0.0000 0.9651 -0.2619
vn 0.4182 0.9084 -0.0000
vn -0.7586 -0.6516 -0.0000
vn 1.0000 0.0093 -0.0000
vn -1.0000 -0.0093 -0.0000
vn -0.0000 0.7712 0.6366
vn -0.6654 -0.7464 -0.0000
vn 0.7586 0.6516 -0.0000
vn -0.0000 0.5800 -0.8146
vn -0.0000 -0.5800 0.8146
vn -0.0000 -0.0018 1.0000
vn -0.0000 -0.7942 0.6077
vn -0.0000 0.7942 -0.6077
vn 0.6654 0.7464 -0.0000
vn -0.1240 0.9923 -0.0000
vn -0.8780 -0.4787 -0.0000
vn 0.8780 0.4787 -0.0000
vn -0.0000 0.0018 -1.0000
vn -0.8848 -0.4660 -0.0000
vn -0.0000 0.9987 0.0516
vn -0.0000 -0.9987 -0.0516
vn 0.1240 -0.9923 -0.0000
vn -0.0000 1.0000 -0.0000
vn -0.0000 0.0401 0.9992
vn -0.0000 -0.0401 -0.9992
vn 0.8848 0.4660 -0.0000
vt 0.625000 0.750000
vt 0.625000 1.000000
vt 0.375000 1.000000
vt 0.375000 0.750000
vt 0.625000 0.000000
vt 0.375000 0.250000
vt 0.375000 0.000000
vt 0.375000 0.500000
vt 0.125000 0.750000
vt 0.125000 0.500000
vt 0.625000 0.500000
vt 0.625000 0.250000
vt 0.875000 0.500000
vt 0.875000 0.750000
s 0
usemtl Material
f 3/1/1 10/2/1 7/2/1
f 3/1/2 8/3/2 4/4/2
f 7/5/3 6/6/3 8/7/3
f 2/8/4 8/9/4 6/10/4
f 1/11/5 4/4/5 2/8/5
f 5/12/6 2/8/6 6/6/6
f 12/12/7 15/11/7 11/11/7
f 5/12/8 10/5/8 12/12/8
f 1/11/9 9/1/9 3/1/9
f 1/11/10 12/12/10 11/11/10
f 16/12/11 18/5/11 20/12/11
f 9/1/12 15/11/12 13/1/12
f 10/5/13 16/12/13 12/12/13
f 10/2/14 13/1/14 14/2/14
f 18/2/15 21/1/15 22/2/15
f 13/1/16 18/2/16 14/2/16
f 15/11/17 20/12/17 19/11/17
f 15/11/18 17/1/18 13/1/18
f 23/11/19 28/12/19 27/11/19
f 20/12/20 23/11/20 19/11/20
f 17/1/21 23/11/21 21/1/21
f 18/5/22 24/12/22 20/12/22
f 26/5/23 32/12/23 28/12/23
f 23/11/24 25/1/24 21/1/24
f 24/12/25 26/5/25 28/12/25
f 21/1/26 26/2/26 22/2/26
f 32/12/27 35/11/27 31/11/27
f 26/2/28 29/1/28 30/2/28
f 28/12/29 31/11/29 27/11/29
f 25/1/30 31/11/30 29/1/30
f 35/11/31 37/1/31 33/1/31
f 31/11/32 33/1/32 29/1/32
f 32/12/33 34/5/33 36/12/33
f 30/2/34 33/1/34 34/2/34
f 38/5/35 44/12/35 40/12/35
f 36/12/36 38/5/36 40/12/36
f 33/1/37 38/2/37 34/2/37
f 35/11/38 40/12/38 39/11/38
f 43/11/39 48/12/39 47/11/39
f 38/2/40 41/1/40 42/2/40
f 40/12/41 43/11/41 39/11/41
f 37/1/42 43/11/42 41/1/42
f 48/12/43 50/5/43 52/12/43
f 43/11/44 45/1/44 41/1/44
f 44/12/45 46/5/45 48/12/45
f 41/1/46 46/2/46 42/2/46
f 52/12/47 54/5/47 56/12/47
f 45/1/48 50/2/48 46/2/48
f 47/11/49 52/12/49 51/11/49
f 47/11/50 49/1/50 45/1/50
f 56/13/51 53/1/51 55/11/51
f 50/2/52 53/1/52 54/2/52
f 52/12/53 55/11/53 51/11/53
f 51/11/54 53/1/54 49/1/54
f 3/1/1 9/1/1 10/2/1
f 3/1/2 7/2/2 8/3/2
f 7/5/3 5/12/3 6/6/3
f 2/8/4 4/4/4 8/9/4
f 1/11/5 3/1/5 4/4/5
f 5/12/6 1/11/6 2/8/6
f 12/12/7 16/12/7 15/11/7
f 5/12/8 7/5/8 10/5/8
f 1/11/9 11/11/9 9/1/9
f 1/11/10 5/12/10 12/12/10
f 16/12/11 14/5/11 18/5/11
f 9/1/12 11/11/12 15/11/12
f 10/5/13 14/5/13 16/12/13
f 10/2/14 9/1/14 13/1/14
f 18/2/15 17/1/15 21/1/15
f 13/1/16 17/1/16 18/2/16
f 15/11/17 16/12/17 20/12/17
f 15/11/18 19/11/18 17/1/18
f 23/11/19 24/12/19 28/12/19
f 20/12/20 24/12/20 23/11/20
f 17/1/21 19/11/21 23/11/21
f 18/5/22 22/5/22 24/12/22
f 26/5/23 30/5/23 32/12/23
f 23/11/24 27/11/24 25/1/24
f 24/12/25 22/5/25 26/5/25
f 21/1/26 25/1/26 26/2/26
f 32/12/27 36/12/27 35/11/27
f 26/2/28 25/1/28 29/1/28
f 28/12/29 32/12/29 31/11/29
f 25/1/30 27/11/30 31/11/30
f 35/11/31 39/11/31 37/1/31
f 31/11/32 35/11/32 33/1/32
f 32/12/33 30/5/33 34/5/33
f 30/2/34 29/1/34 33/1/34
f 38/5/35 42/5/35 44/12/35
f 36/12/36 34/5/36 38/5/36
f 33/1/37 37/1/37 38/2/37
f 35/11/38 36/12/38 40/12/38
f 43/11/39 44/12/39 48/12/39
f 38/2/40 37/1/40 41/1/40
f 40/12/41 44/12/41 43/11/41
f 37/1/42 39/11/42 43/11/42
f 48/12/43 46/5/43 50/5/43
f 43/11/44 47/11/44 45/1/44
f 44/12/45 42/5/45 46/5/45
f 41/1/46 45/1/46 46/2/46
f 52/12/47 50/5/47 54/5/47
f 45/1/48 49/1/48 50/2/48
f 47/11/49 48/12/49 52/12/49
f 47/11/50 51/11/50 49/1/50
f 56/13/51 54/14/51 53/1/51
f 50/2/52 49/1/52 53/1/52
f 52/12/53 56/12/53 55/11/53
f 51/11/54 55/11/54 53/1/54
